<?xml version="1.0" encoding="utf-8"?>
<!-- Generator: Adobe Illustrator 24.1.3, SVG Export Plug-In . SVG Version: 6.00 Build 0)  -->
<svg version="1.1" id="Layer_1" xmlns="http://www.w3.org/2000/svg" xmlns:xlink="http://www.w3.org/1999/xlink" x="0px" y="0px"
	 viewBox="0 0 24 24" style="enable-background: new 0 0 24 24;" xml:space="preserve">
<style type="text/css">
  .st0 { fill: none; }
  .st1 { fill: #323232; }
</style>
<g>
	<g>
		<path class="st1" d="M17.9,9.8H6.1C5.6,9.8,5.3,9.5,5.3,9s0.4-0.8,0.8-0.8h10l-1.6-1.6c-0.3-0.3-0.3-0.8,0-1.1
			c0.3-0.3,0.8-0.3,1.1,0l3,3c0.2,0.2,0.3,0.6,0.2,0.9S18.3,9.8,17.9,9.8z"/>
	</g>
	<g>
		<path class="st1" d="M9,18.7c-0.2,0-0.4-0.1-0.6-0.2l-3-3c-0.2-0.2-0.3-0.6-0.2-0.9c0.1-0.3,0.4-0.5,0.7-0.5h11.9
			c0.4,0,0.8,0.4,0.8,0.8s-0.4,0.8-0.8,0.8H8l1.6,1.6c0.3,0.3,0.3,0.8,0,1.1C9.4,18.7,9.2,18.7,9,18.7z"/>
	</g>
</g>
</svg>
