<?xml version="1.0" encoding="utf-8"?>
<!-- Generator: Adobe Illustrator 24.1.3, SVG Export Plug-In . SVG Version: 6.00 Build 0)  -->
<svg version="1.1" id="Layer_1" xmlns="http://www.w3.org/2000/svg" xmlns:xlink="http://www.w3.org/1999/xlink" x="0px" y="0px"
	 viewBox="0 0 24 24" style="enable-background:new 0 0 24 24;" xml:space="preserve">
<style type="text/css">
	.st0{fill:#323232;}
	.st1{fill:none;}
</style>
<g>
	<path class="st0" d="M19.4,7.2h-0.3V6c0-1.5-1.3-2.8-2.8-2.8h-1.2V3c0-0.4-0.4-0.8-0.8-0.8S13.6,2.6,13.6,3v0.2H9.2V3
		c0-0.4-0.4-0.8-0.8-0.8S7.6,2.6,7.6,3v0.2H6.4C4.8,3.2,3.6,4.5,3.6,6v7.1c0,0.5-0.1,1-0.3,1.4l-0.9,1.7c-0.3,0.6-0.3,1.2,0.1,1.8
		c0.3,0.5,0.9,0.9,1.5,0.9h2.2v0.6c0,1.3,1.1,2.4,2.4,2.4h10.9c1.3,0,2.4-1.1,2.4-2.4V9.6C21.8,8.3,20.7,7.2,19.4,7.2z M3.8,17.1
		c0,0,0-0.1,0-0.2l0.9-1.7c0.3-0.7,0.5-1.4,0.5-2.1V6c0-0.7,0.5-1.2,1.2-1.2h1.2V5c0,0.4,0.4,0.8,0.8,0.8S9.2,5.4,9.2,5V4.8h4.4V5
		c0,0.4,0.4,0.8,0.8,0.8s0.8-0.4,0.8-0.8V4.8h1.2c0.7,0,1.2,0.5,1.2,1.2v7.8c0,0.6-0.2,1.2-0.5,1.8l-0.7,1.1c-0.2,0.3-0.6,0.5-1,0.5
		H4C3.9,17.2,3.9,17.1,3.8,17.1z M20.2,19.4c0,0.4-0.3,0.8-0.8,0.8H8.6c-0.4,0-0.8-0.3-0.8-0.8v-0.6h7.5c0.9,0,1.8-0.5,2.3-1.2
		l0.7-1.1c0.5-0.8,0.8-1.7,0.8-2.7v-5h0.3c0.4,0,0.8,0.3,0.8,0.8V19.4z"/>
	<path class="st0" d="M8.2,9.8h6C14.6,9.8,15,9.4,15,9s-0.4-0.8-0.8-0.8h-6C7.7,8.2,7.4,8.6,7.4,9S7.7,9.8,8.2,9.8z"/>
	<path class="st0" d="M8.2,13.8h6c0.4,0,0.8-0.4,0.8-0.8c0-0.4-0.4-0.8-0.8-0.8h-6c-0.4,0-0.8,0.4-0.8,0.8
		C7.4,13.4,7.7,13.8,8.2,13.8z"/>
</g>
</svg>
