<?xml version="1.0" encoding="utf-8"?>
<!-- Generator: Adobe Illustrator 24.1.3, SVG Export Plug-In . SVG Version: 6.00 Build 0)  -->
<svg version="1.1" id="Layer_1" xmlns="http://www.w3.org/2000/svg" xmlns:xlink="http://www.w3.org/1999/xlink" x="0px" y="0px"
	 viewBox="0 0 24 24" style="enable-background:new 0 0 24 24;" xml:space="preserve">
<style type="text/css">
	.st0{fill:#323232;}
	.st1{fill:none;}
</style>
<path class="st0" d="M20.8,9.2V8c0-2.1-1.7-3.8-3.8-3.8H7C4.9,4.2,3.2,5.9,3.2,8v1.2c-1.1,0.1-2,1.1-2,2.3V16c0,1.5,1.3,2.8,2.8,2.8
	h0.2V20c0,0.4,0.4,0.8,0.8,0.8s0.8-0.4,0.8-0.8v-1.2h12.4V20c0,0.4,0.4,0.8,0.8,0.8s0.8-0.4,0.8-0.8v-1.2H20c1.5,0,2.8-1.3,2.8-2.8
	v-4.5C22.8,10.3,21.9,9.4,20.8,9.2z M7,5.8h10c1.2,0,2.2,1,2.2,2.2v1.2c-1.1,0.1-2,1.1-2,2.3v1.7H6.8v-1.7c0-1.2-0.9-2.1-2-2.3V8
	C4.8,6.8,5.8,5.8,7,5.8z M21.2,16c0,0.7-0.5,1.2-1.2,1.2H4c-0.7,0-1.2-0.5-1.2-1.2v-4.5c0-0.4,0.3-0.7,0.7-0.7h1
	c0.4,0,0.7,0.3,0.7,0.7V14c0,0.4,0.4,0.8,0.8,0.8h12c0.4,0,0.8-0.4,0.8-0.8v-2.5c0-0.4,0.3-0.7,0.7-0.7h1c0.4,0,0.7,0.3,0.7,0.7V16z
	"/>
<path class="st1" d="M0,0h24v24H0V0z"/>
</svg>
