<?xml version="1.0" encoding="utf-8"?>
<!-- Generator: Adobe Illustrator 24.1.3, SVG Export Plug-In . SVG Version: 6.00 Build 0)  -->
<svg version="1.1" id="Layer_1" xmlns="http://www.w3.org/2000/svg" xmlns:xlink="http://www.w3.org/1999/xlink" x="0px" y="0px"
	 viewBox="0 0 24 24" style="enable-background:new 0 0 24 24;" xml:space="preserve">
<style type="text/css">
	.st0{fill:#323232;}
	.st1{fill:none;}
</style>
<g>
	<g>
		<path class="st0" d="M18,21.8H6c-2.1,0-3.8-1.7-3.8-3.8v-7.3c0-1.2,0.5-2.3,1.5-3l6-4.7C11,1.9,13,1.9,14.3,3l6,4.7
			c0.9,0.7,1.5,1.8,1.5,3V18C21.8,20.1,20.1,21.8,18,21.8z M12,3.8c-0.5,0-1,0.2-1.4,0.5l-6,4.7C4.1,9.3,3.8,10,3.8,10.7V18
			c0,1.2,1,2.2,2.2,2.2h12c1.2,0,2.2-1,2.2-2.2v-7.3c0-0.7-0.3-1.3-0.8-1.7v0l-6-4.7C13,4,12.5,3.8,12,3.8z"/>
	</g>
	<g>
		<path class="st0" d="M12,16.7c-1.7,0-3.3-0.7-4.6-1.9c-0.3-0.3-0.3-0.8,0-1.1c0.3-0.3,0.8-0.3,1.1,0c0.9,0.9,2.1,1.4,3.4,1.4
			s2.5-0.5,3.4-1.4c0.3-0.3,0.8-0.3,1.1,0s0.3,0.8,0,1.1C15.3,16,13.7,16.7,12,16.7z"/>
	</g>
</g>
</svg>
