<?xml version="1.0" encoding="utf-8"?>
<!-- Generator: Adobe Illustrator 24.1.3, SVG Export Plug-In . SVG Version: 6.00 Build 0)  -->
<svg version="1.1" id="Layer_1" xmlns="http://www.w3.org/2000/svg" xmlns:xlink="http://www.w3.org/1999/xlink" x="0px" y="0px"
	 viewBox="0 0 24 24" style="enable-background:new 0 0 24 24;" xml:space="preserve">
<style type="text/css">
	.st0{fill:#323232;}
	.st1{fill:none;}
</style>
<g>
	<path class="st0" d="M12.3,20.8c-4.9,0-8.8-3.9-8.8-8.8c0-4.5,3.5-8.4,8-8.8c0.3,0,0.6,0.1,0.8,0.4c0.2,0.3,0.1,0.6,0,0.9
		c-1.9,2.5-1.6,6,0.6,8.2c1.7,1.7,4.2,2.3,6.5,1.5c0.3-0.1,0.6,0,0.8,0.2c0.2,0.2,0.3,0.6,0.2,0.9C19.1,18.6,15.9,20.8,12.3,20.8z
		 M10.1,5.1c-2.9,1-5,3.7-5,6.8c0,4,3.2,7.2,7.2,7.2c2.4,0,4.5-1.1,5.9-3c-2.3,0.2-4.7-0.6-6.4-2.3C9.4,11.5,8.8,8.1,10.1,5.1z"/>
</g>
<path class="st1" d="M0,0h24v24H0V0z"/>
</svg>
