<?xml version="1.0" encoding="utf-8"?>
<!-- Generator: Adobe Illustrator 24.1.3, SVG Export Plug-In . SVG Version: 6.00 Build 0)  -->
<svg version="1.1" id="Layer_1" xmlns="http://www.w3.org/2000/svg" xmlns:xlink="http://www.w3.org/1999/xlink" x="0px" y="0px"
	 viewBox="0 0 24 24" style="enable-background:new 0 0 24 24;" xml:space="preserve">
<style type="text/css">
	.st0{fill:none;}
	.st1{fill:#323232;}
</style>
<g>
	<g>
		<path class="st1" d="M17,6.2h-0.2V4c0-1.5-1.3-2.8-2.8-2.8h-4C8.5,1.2,7.2,2.5,7.2,4v2.2H7C5.5,6.2,4.2,7.5,4.2,9v10
			c0,1.5,1.3,2.8,2.8,2.8h0.2V22c0,0.4,0.4,0.8,0.8,0.8s0.8-0.4,0.8-0.8v-0.2h6.4V22c0,0.4,0.4,0.8,0.8,0.8s0.8-0.4,0.8-0.8v-0.2H17
			c1.5,0,2.8-1.3,2.8-2.8V9C19.8,7.5,18.5,6.2,17,6.2z M8.8,4c0-0.7,0.5-1.2,1.2-1.2h4c0.7,0,1.2,0.5,1.2,1.2v2.2H8.8V4z M18.2,19
			c0,0.7-0.5,1.2-1.2,1.2H7c-0.7,0-1.2-0.5-1.2-1.2V9c0-0.7,0.5-1.2,1.2-1.2h10c0.7,0,1.2,0.5,1.2,1.2V19z"/>
		<path class="st1" d="M14,9.2h-4c-0.4,0-0.8,0.4-0.8,0.8s0.4,0.8,0.8,0.8h4c0.4,0,0.8-0.4,0.8-0.8S14.4,9.2,14,9.2z"/>
		<path class="st1" d="M12,12.2c-0.4,0-0.8,0.4-0.8,0.8v5c0,0.4,0.4,0.8,0.8,0.8s0.8-0.4,0.8-0.8v-5C12.8,12.6,12.4,12.2,12,12.2z"
			/>
		<path class="st1" d="M8,12.2c-0.4,0-0.8,0.4-0.8,0.8v5c0,0.4,0.4,0.8,0.8,0.8s0.8-0.4,0.8-0.8v-5C8.8,12.6,8.4,12.2,8,12.2z"/>
		<path class="st1" d="M16,12.2c-0.4,0-0.8,0.4-0.8,0.8v5c0,0.4,0.4,0.8,0.8,0.8s0.8-0.4,0.8-0.8v-5C16.8,12.6,16.4,12.2,16,12.2z"
			/>
	</g>
</g>
</svg>
