<?xml version="1.0" encoding="utf-8"?>
<!-- Generator: Adobe Illustrator 24.1.3, SVG Export Plug-In . SVG Version: 6.00 Build 0)  -->
<svg version="1.1" id="Layer_1" xmlns="http://www.w3.org/2000/svg" xmlns:xlink="http://www.w3.org/1999/xlink" x="0px" y="0px"
	 viewBox="0 0 24 24" style="enable-background:new 0 0 24 24;" xml:space="preserve">
<style type="text/css">
	.st0{fill:#323232;}
	.st1{fill:none;}
</style>
<g>
	<g>
		<path class="st0" d="M19,20.8c-0.4,0-0.8-0.4-0.8-0.8c0-2-1.6-3.6-3.6-3.6H9.4c-2,0-3.6,1.6-3.6,3.6c0,0.4-0.4,0.8-0.8,0.8
			S4.2,20.4,4.2,20c0-2.9,2.4-5.2,5.2-5.2h5.1c2.9,0,5.2,2.4,5.2,5.2C19.8,20.4,19.4,20.8,19,20.8z"/>
	</g>
	<g>
		<path class="st0" d="M12,13.3c-1.3,0-2.6-0.5-3.6-1.5c-2-2-2-5.2,0-7.1c1-1,2.2-1.5,3.6-1.5c1.3,0,2.6,0.5,3.6,1.5l0,0
			c1,1,1.5,2.2,1.5,3.6s-0.5,2.6-1.5,3.6C14.6,12.8,13.3,13.3,12,13.3z M12,4.8c-0.9,0-1.8,0.4-2.4,1c-1.3,1.3-1.3,3.5,0,4.9
			c1.3,1.3,3.6,1.3,4.9,0c0.7-0.7,1-1.5,1-2.4s-0.4-1.8-1-2.4v0C13.8,5.2,12.9,4.8,12,4.8z"/>
	</g>
</g>
<path class="st1" d="M0,0h24v24H0V0z"/>
</svg>
