<?xml version="1.0" encoding="utf-8"?>
<!-- Generator: Adobe Illustrator 24.1.3, SVG Export Plug-In . SVG Version: 6.00 Build 0)  -->
<svg version="1.1" id="Layer_1" xmlns="http://www.w3.org/2000/svg" xmlns:xlink="http://www.w3.org/1999/xlink" x="0px" y="0px"
	 viewBox="0 0 24 24" style="enable-background: new 0 0 24 24;" xml:space="preserve">
<style type="text/css">
  .st0 { fill: none; }
  .st1 { fill: #323232; }
</style>
<g>
	<g>
		<path class="st1" d="M16.6,14.8h-5.1c-2.9,0-5.2,2.4-5.2,5.2c0,0.4,0.4,0.8,0.8,0.8s0.8-0.4,0.8-0.8c0-2,1.6-3.6,3.6-3.6h5.1
			c2,0,3.6,1.6,3.6,3.6c0,0.4,0.4,0.8,0.8,0.8s0.8-0.4,0.8-0.8C21.8,17.1,19.4,14.8,16.6,14.8z"/>
		<path class="st1" d="M14,13.2c1.3,0,2.6-0.5,3.5-1.5c0.9-0.9,1.5-2.2,1.5-3.5c0-1.3-0.5-2.6-1.5-3.5c-0.9-0.9-2.2-1.5-3.5-1.5
			c-1.3,0-2.6,0.5-3.5,1.5c-1.9,1.9-1.9,5.1,0,7.1C11.4,12.7,12.7,13.2,14,13.2z M11.6,5.8c0.6-0.6,1.5-1,2.4-1s1.8,0.4,2.4,1v0
			c0.6,0.6,1,1.5,1,2.4c0,0.9-0.4,1.8-1,2.4c-1.3,1.3-3.5,1.3-4.8,0C10.3,9.3,10.3,7.1,11.6,5.8z"/>
		<path class="st1" d="M6.5,12.8c0.4,0,0.8-0.4,0.8-0.8s-0.4-0.8-0.8-0.8H5.3V10c0-0.4-0.4-0.8-0.8-0.8S3.7,9.6,3.7,10v1.2H2.5
			c-0.4,0-0.8,0.4-0.8,0.8s0.4,0.8,0.8,0.8h1.2V14c0,0.4,0.4,0.8,0.8,0.8s0.8-0.4,0.8-0.8v-1.2H6.5z"/>
	</g>
</g>
</svg>
