<svg id="Layer_1" data-name="Layer 1" xmlns="http://www.w3.org/2000/svg" width="8.4667mm" height="8.4667mm" viewBox="0 0 24.0001 24.0001"><defs><style>.cls-1{fill:#323232;}</style></defs><path class="cls-1" d="M8.8809,21.5264a.7219.7219,0,0,1-.0918-.0059.7489.7489,0,0,1-.5513-.3584l-2.0249-3.375L2.8384,15.7627a.7506.7506,0,0,1-.1446-1.1738l1.086-1.086a1.7231,1.7231,0,0,1,1.3857-.5058l1.8213.1523,2.3477-2.3476L3.6724,8.5947a1.75,1.75,0,0,1-.6031-2.8676l.66-.66A1.74,1.74,0,0,1,5.313,4.5894l8.522,1.7124,3.0273-3.0279a2.7982,2.7982,0,0,1,3.8643,0,2.7362,2.7362,0,0,1,0,3.8633L17.6982,10.165l1.7129,8.5235a1.7463,1.7463,0,0,1-.4756,1.58l-.6621.6621a1.7513,1.7513,0,0,1-2.8681-.6016l-2.2071-5.663-2.3476,2.3467.1528,1.8242a1.7458,1.7458,0,0,1-.5063,1.3838l-1.086,1.0859A.75.75,0,0,1,8.8809,21.5264Zm4.6-8.9532a.7519.7519,0,0,1,.6992.4776l2.623,6.7324a.245.245,0,0,0,.1827.1543.2476.2476,0,0,0,.2275-.0674l.66-.66a.2519.2519,0,0,0,.0674-.2256l-1.792-8.9175a.7486.7486,0,0,1,.2051-.6782l3.3125-3.312a1.2322,1.2322,0,0,0-1.7431-1.7422h0l-3.3116,3.312a.7494.7494,0,0,1-.6777.2051L5.0161,6.06a.2481.2481,0,0,0-.2261.0678l-.66.66a.2506.2506,0,0,0,.0869.41l6.7319,2.624a.75.75,0,0,1,.2578,1.229L7.8013,14.4561a.7393.7393,0,0,1-.5928.2168l-2.17-.1817a.27.27,0,0,0-.1983.0723l-.4067.4062,2.7119,1.627a.7548.7548,0,0,1,.2573.2578L9.03,19.5664l.4067-.4062a.251.251,0,0,0,.0723-.1973L9.3267,16.791a.751.751,0,0,1,.2172-.5928L12.95,12.793a.75.75,0,0,1,.5305-.22Z"/></svg>