<svg id="Layer_1" data-name="Layer 1" xmlns="http://www.w3.org/2000/svg" width="8.4667mm" height="8.4667mm" viewBox="0 0 24 24"><defs><style>.cls-1{fill:#323232;}</style></defs><path class="cls-1" d="M5.5392,10.6h12.8a.7887.7887,0,0,0,.8-.8.736.736,0,0,0-.8-.8h-10.9l1.9-1.9a.7778.7778,0,1,0-1.1-1.1l-3.2,3.2a.7777.7777,0,0,0-.2.8C5.0392,10.4,5.2392,10.6,5.5392,10.6Z"/><path class="cls-1" d="M15.1392,18.1a.7638.7638,0,0,0,.5-.2l3.2-3.2a.7777.7777,0,0,0,.2-.8.752.752,0,0,0-.7-.5h-12.7a.7887.7887,0,0,0-.8.8.736.736,0,0,0,.8.8h10.9l-1.9,1.9a.7847.7847,0,0,0,0,1.1A4.3311,4.3311,0,0,0,15.1392,18.1Z"/></svg>