<svg id="Layer_1" data-name="Layer 1" xmlns="http://www.w3.org/2000/svg" width="8.4667mm" height="8.4667mm" viewBox="0 0 24 24"><defs><style>.cls-1{fill:#323232;}</style></defs><path class="cls-1" d="M14,9.25H10a.75.75,0,0,0,0,1.5h4a.75.75,0,0,0,0-1.5Z"/><path class="cls-1" d="M14,12.25H10a.75.75,0,0,0,0,1.5h4a.75.75,0,0,0,0-1.5Z"/><path class="cls-1" d="M13,15.25H10a.75.75,0,0,0,0,1.5h3a.75.75,0,0,0,0-1.5Z"/><path class="cls-1" d="M19,2.25H5A2.7528,2.7528,0,0,0,2.25,5V9A2.7528,2.7528,0,0,0,5,11.75H6.25V20a.75.75,0,0,0,1.0283.6963L9.5,19.8076l2.2217.8887a.7413.7413,0,0,0,.5566,0L14.5,19.8076l2.2217.8887A.7495.7495,0,0,0,17.75,20V11.75H19A2.7528,2.7528,0,0,0,21.75,9V5A2.7528,2.7528,0,0,0,19,2.25ZM16.25,18.8926l-1.4717-.5889a.7413.7413,0,0,0-.5566,0L12,19.1924l-2.2217-.8887a.748.748,0,0,0-.5566,0L7.75,18.8926V7.75h8.5ZM20.25,9A1.2511,1.2511,0,0,1,19,10.25H17.75V7A.75.75,0,0,0,17,6.25H7A.75.75,0,0,0,6.25,7v3.25H5A1.2511,1.2511,0,0,1,3.75,9V5A1.2511,1.2511,0,0,1,5,3.75H19A1.2511,1.2511,0,0,1,20.25,5Z"/></svg>