<?xml version="1.0" encoding="utf-8"?>
<!-- Generator: Adobe Illustrator 23.0.3, SVG Export Plug-In . SVG Version: 6.00 Build 0)  -->
<svg version="1.1" id="Layer_1" xmlns="http://www.w3.org/2000/svg" xmlns:xlink="http://www.w3.org/1999/xlink" x="0px" y="0px"
	 width="24px" height="24px" viewBox="0 0 24 24" style="enable-background:new 0 0 24 24;" xml:space="preserve">
<style type="text/css">
	.st0{fill:#323232;}
</style>
<path class="st0" d="M19,6.7h-2.7V5.9c0-1.5-1.2-2.7-2.7-2.7h-3.3c-1.5,0-2.7,1.2-2.7,2.7v0.8H5C3.5,6.7,2.2,8,2.2,9.5V18
	c0,1.5,1.2,2.8,2.8,2.8h14c1.5,0,2.8-1.2,2.8-2.8V9.5C21.8,8,20.5,6.7,19,6.7z M13.8,15.3v-1.5h3.5v1.5H13.8z M13,12.3
	c-0.4,0-0.8,0.3-0.8,0.8v3c0,0.4,0.3,0.8,0.8,0.8h2.8v2.5H8.3V8.3h7.5v4H13z M9,5.9c0-0.7,0.6-1.3,1.3-1.3h3.3
	c0.7,0,1.3,0.6,1.3,1.3v0.8H9V5.9z M3.8,18V9.5c0-0.7,0.5-1.2,1.2-1.2h1.8v10.9H5C4.3,19.2,3.8,18.7,3.8,18z M20.2,18
	c0,0.7-0.5,1.2-1.2,1.2h-1.8v-2.5H18c0.4,0,0.8-0.3,0.8-0.8v-3c0-0.4-0.3-0.8-0.8-0.8h-0.8v-4H19c0.7,0,1.2,0.5,1.2,1.2V18z"/>
</svg>
