<?xml version="1.0" encoding="utf-8"?>
<!-- Generator: Adobe Illustrator 23.0.3, SVG Export Plug-In . SVG Version: 6.00 Build 0)  -->
<svg version="1.1" id="Layer_1" xmlns="http://www.w3.org/2000/svg" xmlns:xlink="http://www.w3.org/1999/xlink" x="0px" y="0px"
	 width="24px" height="24px" viewBox="0 0 24 24" style="enable-background:new 0 0 24 24;" xml:space="preserve">
<style type="text/css">
	.st0{fill:#323232;}
</style>
<g>
	<path class="st0" d="M15.5,8.6c0.3,0,0.6-0.1,0.8-0.3c0.2-0.2,0.3-0.5,0.3-0.8c0-0.3-0.1-0.6-0.3-0.8c-0.4-0.4-1.2-0.4-1.6,0
		c-0.2,0.2-0.3,0.5-0.3,0.8c0,0.3,0.1,0.6,0.3,0.8C15,8.5,15.2,8.6,15.5,8.6z"/>
	<path class="st0" d="M17.7,15.1l-1.7,1.7L15.3,16c-0.3-0.3-0.8-0.3-1.1,0c-0.3,0.3-0.3,0.8,0,1.1l1.3,1.3c0.1,0.1,0.3,0.2,0.5,0.2
		s0.4-0.1,0.5-0.2l2.2-2.2c0.3-0.3,0.3-0.8,0-1.1C18.5,14.8,18,14.8,17.7,15.1z"/>
	<path class="st0" d="M19.3,12.1l0.6-0.6c0.5-0.5,0.8-1.3,0.8-2V5.1c0-1.6-1.3-2.9-2.9-2.9h-4.4c-0.8,0-1.5,0.3-2,0.8l-8.4,8.4
		c-0.5,0.5-0.8,1.3-0.8,2c0,0.8,0.3,1.5,0.8,2l4.4,4.4c0.5,0.5,1.3,0.8,2,0.8s1.5-0.3,2-0.8l0.6-0.6c0.9,1.5,2.6,2.4,4.4,2.4
		c2.9,0,5.3-2.4,5.3-5.3C21.8,14.6,20.8,13,19.3,12.1z M10.4,18.9c-0.5,0.5-1.4,0.5-1.9,0l-4.4-4.4c-0.3-0.3-0.4-0.6-0.4-1
		c0-0.4,0.1-0.7,0.4-1l8.4-8.4c0.3-0.3,0.6-0.4,1-0.4h4.4c0.7,0,1.4,0.6,1.4,1.4v4.4c0,0.4-0.1,0.7-0.4,1l-1,1
		c-0.4-0.1-0.9-0.2-1.3-0.2c0,0,0,0,0,0c-1.4,0-2.7,0.6-3.7,1.6c-1,1-1.6,2.3-1.6,3.7c0,0.5,0.1,0.9,0.2,1.3L10.4,18.9z M16.5,20.3
		c-2.1,0-3.8-1.7-3.8-3.8c0-1,0.4-1.9,1.1-2.6c0.7-0.7,1.7-1.1,2.6-1.1c0,0,0,0,0,0c2.1,0,3.7,1.7,3.7,3.8
		C20.3,18.6,18.6,20.3,16.5,20.3z"/>
</g>
</svg>
