<?xml version="1.0" encoding="utf-8"?>
<!-- Generator: Adobe Illustrator 23.0.3, SVG Export Plug-In . SVG Version: 6.00 Build 0)  -->
<svg version="1.1" id="Layer_1" xmlns="http://www.w3.org/2000/svg" xmlns:xlink="http://www.w3.org/1999/xlink" x="0px" y="0px"
	 width="24px" height="24px" viewBox="0 0 24 24" style="enable-background:new 0 0 24 24;" xml:space="preserve">
<style type="text/css">
	.st0{fill:#323232;}
</style>
<g>
	<path class="st0" d="M19,3.3h-2.3V2c0-0.4-0.3-0.8-0.8-0.8S15.3,1.6,15.3,2v1.3H8.8V2c0-0.4-0.3-0.8-0.8-0.8S7.3,1.6,7.3,2v1.3H5
		C3.5,3.3,2.3,4.5,2.3,6v13c0,1.5,1.2,2.8,2.8,2.8h14c1.5,0,2.8-1.2,2.8-2.8V6C21.8,4.5,20.5,3.3,19,3.3z M20.3,19
		c0,0.7-0.6,1.3-1.3,1.3H5c-0.7,0-1.3-0.6-1.3-1.3V9.8h16.5V19z M20.3,8.3H3.8V6c0-0.7,0.6-1.3,1.3-1.3h2.3V6c0,0.4,0.3,0.8,0.8,0.8
		S8.8,6.4,8.8,6V4.8h6.5V6c0,0.4,0.3,0.8,0.8,0.8s0.8-0.3,0.8-0.8V4.8H19c0.7,0,1.3,0.6,1.3,1.3V8.3z"/>
	<path class="st0" d="M7,13.8h10c0.4,0,0.8-0.3,0.8-0.8s-0.3-0.8-0.8-0.8H7c-0.4,0-0.8,0.3-0.8,0.8S6.6,13.8,7,13.8z"/>
	<path class="st0" d="M7,17.8h10c0.4,0,0.8-0.3,0.8-0.8s-0.3-0.8-0.8-0.8H7c-0.4,0-0.8,0.3-0.8,0.8S6.6,17.8,7,17.8z"/>
</g>
</svg>
