<?xml version="1.0" encoding="utf-8"?>
<!-- Generator: Adobe Illustrator 23.0.3, SVG Export Plug-In . SVG Version: 6.00 Build 0)  -->
<svg version="1.1" id="Layer_1" xmlns="http://www.w3.org/2000/svg" xmlns:xlink="http://www.w3.org/1999/xlink" x="0px" y="0px"
	 width="24px" height="24px" viewBox="0 0 24 24" style="enable-background:new 0 0 24 24;" xml:space="preserve">
<style type="text/css">
	.st0{fill:#323232;}
</style>
<g>
	<g>
		<path class="st0" d="M16.6,16.8c-0.1,0-0.3,0-0.4-0.1l-4.9-2.9c-0.2-0.1-0.4-0.4-0.4-0.6V6.7C11,6.3,11.3,6,11.7,6
			s0.8,0.3,0.8,0.8v5.9l4.6,2.7c0.4,0.2,0.5,0.7,0.3,1C17.1,16.6,16.9,16.8,16.6,16.8z"/>
	</g>
	<g>
		<path class="st0" d="M12,21.7c-2.5,0-5-1-6.9-2.9c-3.8-3.8-3.8-10,0-13.8c3.8-3.8,10-3.8,13.8,0l0,0c3.8,3.8,3.8,10,0,13.8
			C17,20.8,14.5,21.7,12,21.7z M12,3.8c-2.1,0-4.2,0.8-5.8,2.4C3,9.4,3,14.6,6.2,17.8c3.2,3.2,8.5,3.2,11.7,0
			c3.2-3.2,3.2-8.5,0-11.7C16.2,4.6,14.1,3.8,12,3.8z"/>
	</g>
</g>
</svg>
