<svg id="Layer_1" data-name="Layer 1" xmlns="http://www.w3.org/2000/svg" width="8.4667mm" height="8.4667mm" viewBox="0 0 24 24"><defs><style>.cls-1{fill:#323232;}</style></defs><path class="cls-1" d="M8,19.75H6A2.7528,2.7528,0,0,1,3.25,17V7A2.7528,2.7528,0,0,1,6,4.25H8a.75.75,0,0,1,0,1.5H6A1.2511,1.2511,0,0,0,4.75,7V17A1.2511,1.2511,0,0,0,6,18.25H8a.75.75,0,0,1,0,1.5Z"/><path class="cls-1" d="M12.9946,21.75A2.7518,2.7518,0,0,1,10.25,19V5.001a2.75,2.75,0,0,1,3.3428-2.6856l5,1.104A2.7673,2.7673,0,0,1,20.75,6.105v11.79A2.7652,2.7652,0,0,1,18.5918,20.58l-4.999,1.1045h0A2.7768,2.7768,0,0,1,12.9946,21.75Zm.4361-.7979h0ZM12.9971,3.7505A1.25,1.25,0,0,0,11.75,5.001V19a1.2494,1.2494,0,0,0,1.5186,1.22l5-1.1045a1.2562,1.2562,0,0,0,.9814-1.2207V6.105a1.2575,1.2575,0,0,0-.98-1.2207L13.2686,3.78A1.2484,1.2484,0,0,0,12.9971,3.7505Z"/><path class="cls-1" d="M14,13.75a.75.75,0,0,1-.75-.75V11a.75.75,0,0,1,1.5,0v2A.75.75,0,0,1,14,13.75Z"/></svg>