<?xml version="1.0" encoding="utf-8"?>
<!-- Generator: Adobe Illustrator 24.1.3, SVG Export Plug-In . SVG Version: 6.00 Build 0)  -->
<svg version="1.1" id="Layer_1" xmlns="http://www.w3.org/2000/svg" xmlns:xlink="http://www.w3.org/1999/xlink" x="0px" y="0px"
	 viewBox="0 0 24 24" style="enable-background:new 0 0 24 24;" xml:space="preserve">
<style type="text/css">
	.st0{fill:#323232;}
	.st1{fill:none;}
</style>
<g>
	<path class="st0" d="M8.9,21.6C8.8,21.6,8.8,21.6,8.9,21.6c-0.3,0-0.6-0.2-0.7-0.4l-2-3.4l-3.4-2c-0.2-0.1-0.4-0.3-0.4-0.6
		s0.1-0.5,0.2-0.7l1.1-1.1c0.4-0.4,0.9-0.6,1.4-0.5L7,13.1l2.3-2.3L3.7,8.6c-0.6-0.2-1-0.7-1.1-1.3S2.6,6.1,3,5.7L3.7,5
		c0.4-0.4,1-0.6,1.6-0.5l8.5,1.7l3-3c1.1-1.1,2.8-1.1,3.9,0c1.1,1.1,1.1,2.8,0,3.9l-3,3l1.7,8.5c0.1,0.6-0.1,1.2-0.5,1.6L18.3,21
		c-0.4,0.4-1,0.6-1.6,0.5c-0.6-0.1-1.1-0.5-1.3-1.1l-2.2-5.6L10.9,17l0.2,1.8c0,0.5-0.1,1-0.5,1.4l-1.1,1.1
		C9.3,21.5,9.1,21.6,8.9,21.6z M13.5,12.5c0.1,0,0.1,0,0.2,0c0.3,0.1,0.5,0.2,0.6,0.5l2.6,6.7c0,0.1,0.1,0.1,0.1,0.1
		c0.1,0,0.1,0,0.2-0.1l0.7-0.7c0,0,0.1-0.1,0.1-0.2l-1.8-8.9c-0.1-0.3,0-0.5,0.2-0.7L19.6,6c0.5-0.5,0.5-1.2,0-1.7
		c-0.5-0.5-1.2-0.5-1.7,0l-3.3,3.3c-0.2,0.2-0.5,0.3-0.7,0.2L5,6.1c-0.1,0-0.1,0-0.2,0.1L4.2,6.8C4.1,6.9,4.1,7,4.1,7
		c0,0,0,0.1,0.1,0.1L11,9.8c0.3,0.1,0.4,0.3,0.5,0.6c0.1,0.3,0,0.5-0.2,0.7l-3.4,3.4c-0.2,0.2-0.4,0.3-0.6,0.2L5,14.5
		c-0.1,0-0.1,0-0.2,0.1L4.5,15l2.7,1.6c0.1,0.1,0.2,0.2,0.3,0.3L9,19.5l0.4-0.4c0,0,0.1-0.1,0.1-0.2l-0.2-2.2c0-0.2,0.1-0.5,0.2-0.6
		l3.4-3.4C13.1,12.6,13.3,12.5,13.5,12.5z"/>
</g>
</svg>
