<?xml version="1.0" encoding="utf-8"?>
<!-- Generator: Adobe Illustrator 24.1.3, SVG Export Plug-In . SVG Version: 6.00 Build 0)  -->
<svg version="1.1" id="Layer_1" xmlns="http://www.w3.org/2000/svg" xmlns:xlink="http://www.w3.org/1999/xlink" x="0px" y="0px"
	 viewBox="0 0 24 24" style="enable-background:new 0 0 24 24;" xml:space="preserve">
<style type="text/css">
	.st0{fill:#323232;}
	.st1{fill:none;}
</style>
<g>
	<path class="st0" d="M16,22.8H9c-1.5,0-2.8-1.3-2.8-2.8v-3.8c0-1.7,0.8-3.2,2.3-4.1l4.8-3c0.6-0.4,0.9-1,0.9-1.6
		c0-0.9-0.8-1.7-1.7-1.7s-1.7,0.8-1.7,1.7c0,1.3-1,2.3-2.3,2.3s-2.3-1-2.3-2.3C6.2,4,9,1.2,12.5,1.2s6.3,2.8,6.3,6.3V20
		C18.8,21.5,17.5,22.8,16,22.8z M12.5,4.2c1.8,0,3.3,1.5,3.3,3.3c0,1.2-0.6,2.3-1.6,3l-4.8,3l0,0c-0.9,0.6-1.5,1.6-1.5,2.7V20
		c0,0.7,0.5,1.2,1.2,1.2h7c0.7,0,1.2-0.5,1.2-1.2V7.5c0-2.6-2.1-4.7-4.7-4.7S7.8,4.9,7.8,7.5c0,0.4,0.3,0.7,0.7,0.7s0.7-0.3,0.7-0.7
		C9.2,5.7,10.7,4.2,12.5,4.2z M8.9,12.8L8.9,12.8L8.9,12.8z"/>
</g>
</svg>
