<svg id="Layer_1" data-name="Layer 1" xmlns="http://www.w3.org/2000/svg" width="8.47mm" height="8.47mm" viewBox="0 0 24.0094 24.0094"><defs><style>.cls-1{fill:#323232;}</style></defs><path class="cls-1" d="M12.0047,14.6644a2.75,2.75,0,1,1,2.75-2.75A2.75,2.75,0,0,1,12.0047,14.6644Zm0-4a1.25,1.25,0,1,0,1.25,1.25A1.25,1.25,0,0,0,12.0047,10.6644Z"/><path class="cls-1" d="M6.5047,14.7544a.75.75,0,0,1-.75-.75v-3a.75.75,0,0,1,1.5,0v3A.75.75,0,0,1,6.5047,14.7544Z"/><path class="cls-1" d="M17.5047,13.7544a.75.75,0,0,1-.75-.75v-3a.75.75,0,0,1,1.5,0v3A.75.75,0,0,1,17.5047,13.7544Z"/><path class="cls-1" d="M7.5526,19.7515a19.0246,19.0246,0,0,1-3.7379-.3682l-.1509-.03a1.7547,1.7547,0,0,1-1.4091-1.7161V6.7983A1.75,1.75,0,0,1,4.347,5.082,16.6206,16.6206,0,0,0,11.5862,4.91l.4732-.1182a18.15,18.15,0,0,1,7.8953-.1871l.3916.0781a1.7549,1.7549,0,0,1,1.4084,1.7159V17.2378a1.75,1.75,0,0,1-2.0937,1.7148h0a16.6433,16.6433,0,0,0-7.2378.1719l-.233.06A19.1582,19.1582,0,0,1,7.5526,19.7515ZM4.0032,6.5479a.25.25,0,0,0-.1572.0571.2469.2469,0,0,0-.0913.1933V17.6372a.2515.2515,0,0,0,.2017.2451l.1508.03a17.6917,17.6917,0,0,0,7.7159-.1826l.2329-.06a18.1428,18.1428,0,0,1,7.9-.1885h0a.2317.2317,0,0,0,.208-.0517.2434.2434,0,0,0,.0908-.1924V6.3984a.2487.2487,0,0,0-.2021-.2456l-.3917-.0784a16.6371,16.6371,0,0,0-7.2388.1724l-.4732.1177a18.1254,18.1254,0,0,1-7.8955.1879A.2651.2651,0,0,0,4.0032,6.5479Z"/></svg>