<?xml version="1.0" encoding="utf-8"?>
<!-- Generator: Adobe Illustrator 23.0.3, SVG Export Plug-In . SVG Version: 6.00 Build 0)  -->
<svg version="1.1" id="Layer_1" xmlns="http://www.w3.org/2000/svg" xmlns:xlink="http://www.w3.org/1999/xlink" x="0px" y="0px"
	 width="24px" height="24px" viewBox="0 0 24 24" style="enable-background:new 0 0 24 24;" xml:space="preserve">
<style type="text/css">
	.st0{fill:#323232;}
</style>
<g>
	<path class="st0" d="M12.3,20.7c-4.8,0-8.8-3.9-8.8-8.8c0-4.5,3.5-8.3,8-8.7c0.3,0,0.6,0.1,0.7,0.4c0.1,0.3,0.1,0.6,0,0.8
		c-1.9,2.6-1.6,6.1,0.7,8.3c1.7,1.7,4.3,2.3,6.6,1.5c0.3-0.1,0.6,0,0.8,0.2c0.2,0.2,0.3,0.5,0.1,0.8C19,18.6,15.9,20.7,12.3,20.7z
		 M10.1,5.1C7.2,6,5,8.8,5,12c0,4,3.3,7.3,7.3,7.3c2.4,0,4.6-1.2,6-3.1c-2.4,0.3-4.7-0.5-6.5-2.3C9.4,11.5,8.9,8,10.1,5.1z"/>
</g>
</svg>
