<?xml version="1.0" encoding="utf-8"?>
<!-- Generator: Adobe Illustrator 24.1.3, SVG Export Plug-In . SVG Version: 6.00 Build 0)  -->
<svg version="1.1" id="Layer_1" xmlns="http://www.w3.org/2000/svg" xmlns:xlink="http://www.w3.org/1999/xlink" x="0px" y="0px"
	 viewBox="0 0 24 24" style="enable-background:new 0 0 24 24;" xml:space="preserve">
<style type="text/css">
	.st0{fill:none;}
	.st1{fill:#323232;}
</style>
<g>
	<g>
		<path class="st1" d="M18.8,18.8H5.2c-0.9,0-1.6-0.5-1.9-1.4c-0.3-0.8,0-1.7,0.6-2.3l0.3-0.2c0.6-0.5,0.9-1.2,0.9-1.9V9
			c0-3.7,3.1-6.8,6.8-6.8s6.8,3.1,6.8,6.8v4c0,0.7,0.3,1.4,0.9,1.9l0.3,0.2c0.7,0.6,0.9,1.4,0.6,2.3S19.6,18.8,18.8,18.8z M12,3.8
			C9.1,3.8,6.8,6.1,6.8,9v4c0,1.2-0.6,2.4-1.5,3.2L5,16.4c-0.2,0.2-0.2,0.4-0.1,0.5c0,0.1,0.1,0.3,0.4,0.3h13.5
			c0.3,0,0.4-0.2,0.4-0.3c0-0.1,0.1-0.3-0.1-0.5l-0.3-0.2c-1-0.8-1.5-1.9-1.5-3.2V9C17.2,6.1,14.9,3.8,12,3.8z"/>
	</g>
	<g>
		<path class="st1" d="M13.5,21.8h-3c-0.4,0-0.8-0.4-0.8-0.8s0.4-0.8,0.8-0.8h3c0.4,0,0.8,0.4,0.8,0.8S13.9,21.8,13.5,21.8z"/>
	</g>
</g>
</svg>
