<svg data-name="Layer 1" xmlns="http://www.w3.org/2000/svg" width="32" height="32" viewBox="0 0 24 24">
    <path d="M16.798 21.025a4.202 4.202 0 01-.77-.072 16.414 16.414 0 01-8.314-4.668 16.411 16.411 0 01-4.667-8.314 3.953 3.953 0 011.056-3.54l.652-.652a2.815 2.815 0 013.889 0l1.174 1.175a2.191 2.191 0 01.649 1.621 2.426 2.426 0 01-.734 1.645l-.82.818a11.812 11.812 0 002.473 3.575 11.958 11.958 0 003.581 2.485l.896-.914a2.304 2.304 0 013.182 0l1.175 1.172a2.754 2.754 0 010 3.89l-.651.65a3.906 3.906 0 01-2.771 1.13zM6.7 4.475a1.241 1.241 0 00-.884.365l-.652.653a2.454 2.454 0 00-.643 2.2 14.912 14.912 0 004.254 7.531 14.906 14.906 0 007.532 4.254 2.449 2.449 0 002.2-.642l.652-.652a1.253 1.253 0 000-1.767l-1.174-1.173a.75.75 0 00-1.06 0l-.902.903a1.506 1.506 0 01-1.661.323 13.498 13.498 0 01-4.037-2.796 13.48 13.48 0 01-2.793-4.036 1.508 1.508 0 01.321-1.66l.82-.82a.934.934 0 00.294-.624.695.695 0 00-.21-.52L7.584 4.84a1.24 1.24 0 00-.884-.366z"
          fill="#323232"/>
</svg>