<?xml version="1.0" encoding="utf-8"?>
<!-- Generator: Adobe Illustrator 24.2.3, SVG Export Plug-In . SVG Version: 6.00 Build 0)  -->
<svg version="1.1" id="Layer_1" xmlns="http://www.w3.org/2000/svg" xmlns:xlink="http://www.w3.org/1999/xlink" x="0px" y="0px"
	 width="24px" height="24px" viewBox="0 0 24 24" style="enable-background:new 0 0 24 24;" xml:space="preserve">
<style type="text/css">
	.st0{fill:#323232;}
</style>
<path class="st0" d="M23.7,8.8C23.7,8,23.2,7.4,22.6,7c-0.6-0.4-1.4-0.5-2.1-0.2l-0.1,0.1c-1.7-2.8-4.7-4.6-8.1-4.6
	c-5.2,0-9.5,4.3-9.5,9.5c0,0.1,0,0.2,0,0.2c-2,1.6-2.9,3.3-2.4,4.6c0.4,1.1,1.7,1.7,3.5,1.7c0,0,0.1,0,0.1,0c0.4,0,0.8,0,1.2-0.1
	c1.7,1.9,4.2,3.1,7,3.1c5.2,0,9.5-4.3,9.5-9.5c0-0.1,0-0.2,0-0.3l0.6-0.2C23.3,10.8,23.8,9.8,23.7,8.8z M3.9,16.8
	c-1.1,0-2-0.3-2.2-0.8c-0.2-0.4,0.2-1.2,1.2-2.2c0.2,1.1,0.6,2.1,1.2,3C4.1,16.7,4,16.8,3.9,16.8z M12.2,19.8c-2,0-3.8-0.7-5.2-1.9
	c0.8-0.2,1.6-0.4,2.4-0.8c0.4-0.2,0.6-0.6,0.4-1c-0.2-0.4-0.6-0.6-1-0.4c-1,0.4-2,0.7-3,0.9c-1-1.3-1.6-3-1.6-4.8c0-4.4,3.6-8,8-8
	c2.7,0,5.2,1.4,6.7,3.6l-2.2,0.9l-3.5-2.8c-0.2-0.1-0.4-0.2-0.6-0.1l-2.4,0.5C9.9,5.9,9.7,6.1,9.6,6.4c-0.1,0.2,0,0.5,0.1,0.7l2.3,3
	l-1.5,0.7l-0.8-0.6C9.3,9.9,8.8,9.8,8.3,10L7,10.4c-0.2,0.1-0.4,0.3-0.5,0.5c-0.1,0.2,0,0.5,0.1,0.7L8.5,14c0.3,0.4,0.8,0.6,1.2,0.6
	c0,0,0,0,0.1,0l4.3-0.1c0.3,0,0.6-0.1,0.9-0.2l5.3-2.3C20.1,16.3,16.5,19.8,12.2,19.8z M21.7,9.8L14.3,13C14.2,13,14.1,13,14,13
	l-4.3,0.1c0,0,0,0,0,0c0,0,0,0,0,0l-1.2-1.6l0.4-0.1l1.2,0.8c0.2,0.1,0.5,0.2,0.7,0.1l2.8-1.2c0.2-0.1,0.4-0.3,0.4-0.5
	c0.1-0.2,0-0.5-0.1-0.6l-2.2-2.8l0.9-0.2l3.6,2.8c0.2,0.2,0.5,0.2,0.7,0.1l3.3-1.3c0.1,0,0.1,0,0.2,0c0,0,0,0,0.1,0L21,8.2
	c0.3-0.1,0.6-0.1,0.8,0.1c0.2,0.1,0.4,0.4,0.4,0.7C22.3,9.3,22.1,9.7,21.7,9.8z"/>
</svg>
