<?xml version="1.0" encoding="utf-8"?>
<!-- Generator: Adobe Illustrator 23.0.3, SVG Export Plug-In . SVG Version: 6.00 Build 0)  -->
<svg version="1.1" id="Layer_1" xmlns="http://www.w3.org/2000/svg" xmlns:xlink="http://www.w3.org/1999/xlink" x="0px" y="0px"
	 width="24px" height="24px" viewBox="0 0 24 24" style="enable-background:new 0 0 24 24;" xml:space="preserve">
<style type="text/css">
	.st0{fill:#323232;}
</style>
<g>
	<g>
		<path class="st0" d="M16,20.8H3c-0.4,0-0.8-0.3-0.8-0.8s0.3-0.8,0.8-0.8h13c0.4,0,0.8,0.3,0.8,0.8S16.4,20.8,16,20.8z"/>
	</g>
	<g>
		<path class="st0" d="M6.3,15.7c-0.5,0-0.9-0.2-1.2-0.5l-2.6-2.6c-0.2-0.2-0.2-0.4-0.2-0.7c0-0.2,0.2-0.4,0.4-0.6l1.6-0.8
			c0.5-0.2,1.1-0.2,1.6,0L7,11.1l2-1.2L5.5,6.6C5.3,6.4,5.2,6.1,5.3,5.9c0.1-0.3,0.2-0.5,0.5-0.5l3-1c0.2-0.1,0.4,0,0.6,0.1L14,7.1
			l4.3-2.5c0.8-0.4,1.6-0.5,2.4-0.1c0.8,0.3,1.4,1,1.6,1.9c0.3,1.2-0.2,2.4-1.3,3l-8.4,5c-0.3,0.2-0.6,0.3-1,0.4l-5.1,0.9
			C6.5,15.7,6.4,15.7,6.3,15.7z M4.3,12.2l1.9,1.9c0,0,0,0,0,0c0.1,0.1,0.1,0.1,0.2,0.1l5.1-0.9c0.2,0,0.3-0.1,0.4-0.2l8.4-5
			c0.5-0.3,0.7-0.8,0.6-1.4c-0.1-0.4-0.4-0.7-0.7-0.8c-0.4-0.2-0.8-0.1-1.1,0.1l-4.7,2.7c-0.2,0.1-0.5,0.1-0.8,0L8.9,5.8L7.4,6.3
			l3.3,3.1c0.2,0.2,0.3,0.4,0.2,0.6s-0.2,0.4-0.4,0.6l-3.2,2c-0.2,0.1-0.5,0.1-0.7,0l-1.6-0.8c-0.1,0-0.2,0-0.2,0L4.3,12.2z"/>
	</g>
</g>
</svg>
