<svg id="Layer_1" data-name="Layer 1" xmlns="http://www.w3.org/2000/svg" width="8.4667mm" height="8.4667mm" viewBox="0 0 24 24"><defs><style>.cls-1{fill:#323232;}</style></defs><path class="cls-1" d="M9,18.75H2a.75.75,0,0,1,0-1.5H9a.75.75,0,0,1,0,1.5Z"/><path class="cls-1" d="M5.3472,13.6787A1.7594,1.7594,0,0,1,4.106,13.167L1.47,10.53A.75.75,0,0,1,1.665,9.3291l1.5533-.7759a1.7534,1.7534,0,0,1,1.5654.001l1.1772.5879L7.9727,7.896l-3.49-3.3306A.75.75,0,0,1,4.7578,3.313l3-1.023a.7489.7489,0,0,1,.6279.0669l4.6231,2.774L17.335,2.6587a2.7506,2.7506,0,0,1,2.7783,4.7476l-8.4024,5.0419a2.7437,2.7437,0,0,1-.9629.3545L5.63,13.6563A1.862,1.862,0,0,1,5.3472,13.6787ZM3.2666,10.2056l1.9,1.9a.2443.2443,0,0,0,.22.07l5.1153-.8526a1.2459,1.2459,0,0,0,.4384-.1616L19.3418,6.12a1.2507,1.2507,0,0,0-1.2627-2.1592l-4.707,2.69a.7493.7493,0,0,1-.7578-.0083L7.9126,3.8223,6.4121,4.334,9.71,7.4805a.75.75,0,0,1-.1226,1.18L6.395,10.6377a.7508.7508,0,0,1-.73.0332L4.1118,9.895a.2517.2517,0,0,0-.2226,0Z"/><path class="cls-1" d="M17.5,22.75a5.2556,5.2556,0,0,1-5.25-5.249A5.3213,5.3213,0,0,1,17.5,12.25h.0049A5.25,5.25,0,0,1,17.5,22.75Zm0-9a3.82,3.82,0,0,0-3.75,3.751,3.75,3.75,0,1,0,3.7529-3.751Z"/><path class="cls-1" d="M17,19.75a.7467.7467,0,0,1-.53-.22l-1.5-1.5A.75.75,0,0,1,16.03,16.97l.97.97,1.97-1.97A.75.75,0,0,1,20.03,17.03l-2.5,2.5A.7467.7467,0,0,1,17,19.75Z"/></svg>