<svg id="Layer_1" data-name="Layer 1" xmlns="http://www.w3.org/2000/svg" width="8.4667mm" height="8.4667mm" viewBox="0 0 24 24"><defs><style>.cls-1{fill:#323232;}</style></defs><path class="cls-1" d="M9,18.75H2a.75.75,0,0,1,0-1.5H9a.75.75,0,0,1,0,1.5Z"/><path class="cls-1" d="M5.5,13.75a1.9723,1.9723,0,0,1-1.43-.6191L1.47,10.53a.75.75,0,0,1,.1949-1.2012l1.6-.8a.7858.7858,0,0,1,.0982-.04,2.1266,2.1266,0,0,1,1.3745,0,.7168.7168,0,0,1,.1157.05L5.97,9.1343,7.9829,7.8765l-3.5-3.3335a.75.75,0,0,1,.28-1.2544l3-1a.7487.7487,0,0,1,.623.0683L13.0078,5.13l4.3184-2.481A2.6517,2.6517,0,0,1,19.7373,2.49,2.7915,2.7915,0,0,1,21.33,4.4316,2.8271,2.8271,0,0,1,20.1357,7.41l-8.4521,5.0341a4.911,4.911,0,0,1-.4551.2017c-.104.042-.209.083-.2925.1245a.7486.7486,0,0,1-.2055.0684l-5.1.8994A.7327.7327,0,0,1,5.5,13.75ZM3.2661,10.2056,5.13,12.07a.5073.5073,0,0,0,.3169.1778l4.9243-.8687c.0928-.042.1963-.084.3-.125s.209-.083.2925-.1245l8.3525-4.9741a1.36,1.36,0,0,0,.5508-1.3921,1.2683,1.2683,0,0,0-.7246-.8965,1.16,1.16,0,0,0-1.0645.0811L13.374,6.65a.7493.7493,0,0,1-.76-.0073L7.91,3.8208l-1.49.4961,3.2969,3.14a.75.75,0,0,1-.12,1.1792l-3.2,2a.7546.7546,0,0,1-.75.0254L4.2119,9.8965a.6287.6287,0,0,0-.332.0024Z"/><path class="cls-1" d="M17.5,22.75a5.2564,5.2564,0,0,1-5.25-5.25,5.3872,5.3872,0,0,1,5.25-5.25,5.25,5.25,0,0,1,0,10.5Zm0-9a3.8477,3.8477,0,0,0-3.75,3.75,3.75,3.75,0,1,0,3.75-3.75Z"/><path class="cls-1" d="M18.3477,17.5l.5761-.5762a.5993.5993,0,0,0-.8476-.8476l-.5762.5761-.5762-.5761a.5993.5993,0,0,0-.8476.8476l.5761.5762-.5761.5762a.5993.5993,0,1,0,.8476.8476l.5762-.5761.5762.5761a.5993.5993,0,0,0,.8476-.8476Z"/></svg>