<?xml version="1.0" encoding="utf-8"?>
<!-- Generator: Adobe Illustrator 23.0.3, SVG Export Plug-In . SVG Version: 6.00 Build 0)  -->
<svg version="1.1" id="Layer_1" xmlns="http://www.w3.org/2000/svg" xmlns:xlink="http://www.w3.org/1999/xlink" x="0px" y="0px"
	 width="24px" height="24px" viewBox="0 0 24 24" style="enable-background:new 0 0 24 24;" xml:space="preserve">
<style type="text/css">
	.st0{fill:#323232;}
</style>
<path class="st0" d="M22,13.1l-7.2-4.8V4c0-1.5-1.2-2.7-2.7-2.7c-1.5,0-2.7,1.2-2.7,2.7v4.3L2,13.1c-0.5,0.3-0.8,0.9-0.8,1.5v1.7
	c0,0.4,0.2,0.8,0.6,1c0.4,0.2,0.8,0.3,1.2,0.1l6.3-2.8v3.3l-1.6,1.3c-0.3,0.2-0.4,0.6-0.4,1V22c0,0.2,0.1,0.4,0.3,0.6
	c0.1,0.1,0.3,0.2,0.5,0.2c0.1,0,0.1,0,0.2,0l3.8-1l3.8,1c0.1,0,0.1,0,0.2,0c0.2,0,0.3-0.1,0.5-0.2c0.2-0.1,0.3-0.4,0.3-0.6v-1.8
	c0-0.4-0.2-0.7-0.4-1l-1.6-1.3v-3.3l6.3,2.8c0.4,0.2,0.8,0.1,1.2-0.1c0.4-0.2,0.6-0.6,0.6-1v-1.7C22.8,13.9,22.5,13.4,22,13.1z
	 M21.3,15.9l-7-3.1c-0.2-0.1-0.5-0.1-0.7,0.1c-0.2,0.1-0.3,0.4-0.3,0.6v4.8c0,0.2,0.1,0.4,0.3,0.6l1.8,1.5V21l-3.1-0.8c0,0,0,0,0,0
	c-0.1,0-0.1,0-0.2,0c-0.1,0-0.1,0-0.2,0c0,0,0,0,0,0L8.8,21v-0.7l1.8-1.5c0.2-0.1,0.3-0.4,0.3-0.6v-4.8c0-0.3-0.1-0.5-0.3-0.6
	c-0.2-0.1-0.5-0.2-0.7-0.1l-7,3.1v-1.3c0-0.1,0-0.2,0.1-0.2l7.6-5c0.2-0.1,0.3-0.4,0.3-0.6V4c0-0.7,0.6-1.2,1.2-1.2
	c0.7,0,1.2,0.6,1.2,1.2v4.7c0,0.3,0.1,0.5,0.3,0.6l7.6,5c0.1,0,0.1,0.1,0.1,0.2V15.9z"/>
</svg>
