<svg id="Layer_1" data-name="Layer 1" xmlns="http://www.w3.org/2000/svg" width="8.47mm" height="8.47mm" viewBox="0 0 24.0094 24.0094"><defs><style>.cls-1{fill:#323232;}</style></defs><path class="cls-1" d="M12.0051,7.7849h-4a.75.75,0,1,1,0-1.5h4a.75.75,0,0,1,0,1.5Z"/><path class="cls-1" d="M12.0051,11.7849h-4a.75.75,0,0,1,0-1.5h4a.75.75,0,0,1,0,1.5Z"/><path class="cls-1" d="M12.0051,15.7849h-4a.75.75,0,0,1,0-1.5h4a.75.75,0,0,1,0,1.5Z"/><path class="cls-1" d="M12.0061,21.7249a1.2412,1.2412,0,0,1-.5635-.1338L8.1164,19.9279a.2468.2468,0,0,0-.2221,0l-2.83,1.415a1.2495,1.2495,0,0,1-1.81-1.1172V4.0349a1.7522,1.7522,0,0,1,1.7508-1.75h14a1.7522,1.7522,0,0,1,1.75,1.75V20.2261a1.2491,1.2491,0,0,1-1.8086,1.1172l-2.83-1.415a.25.25,0,0,0-.2236,0l-3.3278,1.665A1.24,1.24,0,0,1,12.0061,21.7249Zm-.1133-1.4726-.002.001ZM8.0051,18.4029a1.7573,1.7573,0,0,1,.7822.1836l3.2178,1.6093,3.2168-1.6093a1.7673,1.7673,0,0,1,1.5654,0l2.4678,1.2343V4.0349a.25.25,0,0,0-.25-.25h-14a.25.25,0,0,0-.25.25V19.8208l2.4678-1.2343A1.7533,1.7533,0,0,1,8.0051,18.4029Z"/><circle class="cls-1" cx="16.0051" cy="7.0298" r="0.7549"/><circle class="cls-1" cx="16.0051" cy="11.0298" r="0.7549"/><circle class="cls-1" cx="16.0051" cy="15.0298" r="0.7549"/></svg>