<svg id="Layer_1" data-name="Layer 1" xmlns="http://www.w3.org/2000/svg" width="8.4667mm" height="8.4667mm" viewBox="0 0 24 24"><defs><style>.cls-1{fill:#323232;}</style></defs><path class="cls-1" d="M16.9355,15.9541a2.858,2.858,0,0,0-3.3944-.4025L10.49,13.2666a2.7723,2.7723,0,0,0,0-2.5328l3.0449-2.28a2.7591,2.7591,0,0,0,3.4006-.4076,2.7861,2.7861,0,0,0,0-3.9341,2.8494,2.8494,0,0,0-3.9345,0,2.7761,2.7761,0,0,0-.4931,3.2367L9.4569,9.6328a2.8533,2.8533,0,0,0-3.3924.4014A2.78,2.78,0,0,0,8.03,14.78a2.7535,2.7535,0,0,0,1.4331-.4077l3.0429,2.2782a2.775,2.775,0,1,0,4.4292-.6967ZM14.0615,5.1724a1.2822,1.2822,0,1,1,1.8135,1.813,1.3134,1.3134,0,0,1-1.8135,0A1.2832,1.2832,0,0,1,14.0615,5.1724ZM7.125,12.9053a1.28,1.28,0,1,1,1.81,0A1.3082,1.3082,0,0,1,7.125,12.9053Zm8.75,5.9218a1.3132,1.3132,0,0,1-1.8135,0,1.282,1.282,0,1,1,1.8135,0Z"/></svg>