<svg id="Layer_1" data-name="Layer 1" xmlns="http://www.w3.org/2000/svg" width="8.4667mm" height="8.4667mm" viewBox="0 0 24 24"><defs><style>.cls-1{fill:#323232;}</style></defs><path class="cls-1" d="M19.81,7.8843A1.7522,1.7522,0,0,0,18.0645,6.25H15.751V5A3.7505,3.7505,0,0,0,8.25,5V6.25H5.936A1.7551,1.7551,0,0,0,4.19,7.8833L3.3936,19.8174A2.7505,2.7505,0,0,0,6.1382,22.75H17.8623a2.7506,2.7506,0,0,0,2.7441-2.9326ZM9.75,5a2.2505,2.2505,0,0,1,4.501,0V6.25H9.75Zm9.0244,15.8545a1.2366,1.2366,0,0,1-.9121.3955H6.1382a1.25,1.25,0,0,1-1.2476-1.333L5.6865,7.9834a.2506.2506,0,0,1,.25-.2334H8.25V9a.75.75,0,0,0,1.5,0V7.75h4.501V9a.75.75,0,0,0,1.5,0V7.75h2.3135a.25.25,0,0,1,.249.2329L19.11,19.917A1.2428,1.2428,0,0,1,18.7744,20.8545Z"/><path class="cls-1" d="M16,17.25H8a.75.75,0,0,0,0,1.5h8a.75.75,0,0,0,0-1.5Z"/></svg>