<?xml version="1.0" encoding="utf-8"?>
<!-- Generator: Adobe Illustrator 23.0.3, SVG Export Plug-In . SVG Version: 6.00 Build 0)  -->
<svg version="1.1" id="Layer_1" xmlns="http://www.w3.org/2000/svg" xmlns:xlink="http://www.w3.org/1999/xlink" x="0px" y="0px"
	 width="24px" height="24px" viewBox="0 0 24 24" style="enable-background:new 0 0 24 24;" xml:space="preserve">
<style type="text/css">
	.st0{fill:#323232;}
</style>
<g>
	<g>
		<path class="st0" d="M12,17.8c-1.5,0-3-0.6-4.1-1.7S6.3,13.5,6.3,12s0.6-3,1.7-4.1s2.5-1.7,4.1-1.7s3,0.6,4.1,1.7l0,0l0,0
			c1.1,1.1,1.7,2.5,1.7,4.1s-0.6,3-1.7,4.1S13.5,17.8,12,17.8z M12,7.8c-1.1,0-2.2,0.4-3,1.2s-1.2,1.9-1.2,3c0,1.1,0.4,2.2,1.2,3
			s1.9,1.2,3,1.2c1.1,0,2.2-0.4,3-1.2s1.2-1.9,1.2-3c0-1.1-0.4-2.2-1.2-3l0,0C14.2,8.2,13.1,7.8,12,7.8z"/>
	</g>
	<g>
		<path class="st0" d="M12,4.8c-0.4,0-0.8-0.3-0.8-0.8V2c0-0.4,0.3-0.8,0.8-0.8s0.8,0.3,0.8,0.8v2C12.8,4.4,12.4,4.8,12,4.8z"/>
	</g>
	<g>
		<path class="st0" d="M12,22.8c-0.4,0-0.8-0.3-0.8-0.8v-2c0-0.4,0.3-0.8,0.8-0.8s0.8,0.3,0.8,0.8v2C12.8,22.4,12.4,22.8,12,22.8z"
			/>
	</g>
	<g>
		<path class="st0" d="M18.4,6.4c-0.2,0-0.4-0.1-0.5-0.2c-0.3-0.3-0.3-0.8,0-1.1l0.7-0.7c0.3-0.3,0.8-0.3,1.1,0s0.3,0.8,0,1.1
			l-0.7,0.7C18.7,6.3,18.6,6.4,18.4,6.4z"/>
	</g>
	<g>
		<path class="st0" d="M4.9,19.8c-0.2,0-0.4-0.1-0.5-0.2c-0.3-0.3-0.3-0.8,0-1.1l0.7-0.7c0.3-0.3,0.8-0.3,1.1,0s0.3,0.8,0,1.1
			l-0.7,0.7C5.3,19.7,5.1,19.8,4.9,19.8z"/>
	</g>
	<g>
		<path class="st0" d="M22,12.8h-2c-0.4,0-0.8-0.3-0.8-0.8s0.3-0.8,0.8-0.8h2c0.4,0,0.8,0.3,0.8,0.8S22.4,12.8,22,12.8z"/>
	</g>
	<g>
		<path class="st0" d="M4,12.8H2c-0.4,0-0.8-0.3-0.8-0.8s0.3-0.8,0.8-0.8h2c0.4,0,0.8,0.3,0.8,0.8S4.4,12.8,4,12.8z"/>
	</g>
	<g>
		<path class="st0" d="M19.1,19.8c-0.2,0-0.4-0.1-0.5-0.2l-0.7-0.7c-0.3-0.3-0.3-0.8,0-1.1s0.8-0.3,1.1,0l0.7,0.7
			c0.3,0.3,0.3,0.8,0,1.1C19.5,19.7,19.3,19.8,19.1,19.8z"/>
	</g>
	<g>
		<path class="st0" d="M5.6,6.4c-0.2,0-0.4-0.1-0.5-0.2L4.4,5.5c-0.3-0.3-0.3-0.8,0-1.1s0.8-0.3,1.1,0l0.7,0.7
			c0.3,0.3,0.3,0.8,0,1.1C6,6.3,5.8,6.4,5.6,6.4z"/>
	</g>
</g>
</svg>
