<svg id="Layer_1" data-name="Layer 1" xmlns="http://www.w3.org/2000/svg" width="8.4667mm" height="8.4667mm" viewBox="0 0 24 24"><defs><style>.cls-1{fill:#323232;}</style></defs><path class="cls-1" d="M12,5.75A.75.75,0,0,0,12.75,5V3a.75.75,0,0,0-1.5,0V5A.75.75,0,0,0,12,5.75Z"/><path class="cls-1" d="M4,12.25H2a.75.75,0,0,0,0,1.5H4a.75.75,0,0,0,0-1.5Z"/><path class="cls-1" d="M5.53,5.47A.75.75,0,0,0,4.47,6.53l1,1A.75.75,0,0,0,6.53,6.47Z"/><path class="cls-1" d="M19.53,5.47a.75.75,0,0,0-1.0606,0l-1,1A.75.75,0,1,0,18.53,7.53l1-1A.75.75,0,0,0,19.53,5.47Z"/><path class="cls-1" d="M22.14,12.25H20a.75.75,0,0,0,0,1.5h2.14a.75.75,0,0,0,0-1.5Z"/><path class="cls-1" d="M12.53,14.47a.7528.7528,0,0,0-1.0606,0l-2,2A.75.75,0,0,0,10.53,17.53l.72-.72V20a.75.75,0,0,0,1.5,0V16.8105l.72.72A.75.75,0,0,0,14.53,16.47Z"/><path class="cls-1" d="M12,8.25A4.7555,4.7555,0,0,0,7.25,13a.75.75,0,0,0,1.5,0,3.25,3.25,0,0,1,6.5,0,.75.75,0,0,0,1.5,0A4.7555,4.7555,0,0,0,12,8.25Z"/></svg>