<?xml version="1.0" encoding="utf-8"?>
<!-- Generator: Adobe Illustrator 23.0.3, SVG Export Plug-In . SVG Version: 6.00 Build 0)  -->
<svg version="1.1" id="Layer_1" xmlns="http://www.w3.org/2000/svg" xmlns:xlink="http://www.w3.org/1999/xlink" x="0px" y="0px"
	 width="24px" height="24px" viewBox="0 0 24 24" style="enable-background:new 0 0 24 24;" xml:space="preserve">
<style type="text/css">
	.st0{fill:#323232;}
</style>
<g>
	<path class="st0" d="M12,5.8c0.4,0,0.8-0.3,0.8-0.8V3c0-0.4-0.3-0.8-0.8-0.8S11.3,2.6,11.3,3v2C11.3,5.4,11.6,5.8,12,5.8z"/>
	<path class="st0" d="M4.8,13c0-0.4-0.3-0.8-0.8-0.8H2c-0.4,0-0.8,0.3-0.8,0.8s0.3,0.8,0.8,0.8h2C4.4,13.8,4.8,13.4,4.8,13z"/>
	<path class="st0" d="M5.5,7.5C5.6,7.7,5.8,7.8,6,7.8s0.4-0.1,0.5-0.2c0.3-0.3,0.3-0.8,0-1.1l-1-1c-0.3-0.3-0.8-0.3-1.1,0
		s-0.3,0.8,0,1.1L5.5,7.5z"/>
	<path class="st0" d="M18,7.8c0.2,0,0.4-0.1,0.5-0.2l1-1c0.3-0.3,0.3-0.8,0-1.1s-0.8-0.3-1.1,0l-1,1c-0.3,0.3-0.3,0.8,0,1.1
		C17.6,7.7,17.8,7.8,18,7.8z"/>
	<path class="st0" d="M22,12.3h-2c-0.4,0-0.8,0.3-0.8,0.8s0.3,0.8,0.8,0.8h2c0.4,0,0.8-0.3,0.8-0.8S22.4,12.3,22,12.3z"/>
	<path class="st0" d="M7,13.8c0.4,0,0.8-0.3,0.8-0.8c0-2.3,1.9-4.3,4.3-4.3c2.3,0,4.2,1.9,4.2,4.3c0,0.4,0.3,0.8,0.8,0.8
		s0.8-0.3,0.8-0.8c0-3.2-2.6-5.8-5.8-5.8c-3.2,0-5.7,2.6-5.7,5.8C6.3,13.4,6.6,13.8,7,13.8z"/>
	<path class="st0" d="M20,16.3H4c-0.4,0-0.8,0.3-0.8,0.8s0.3,0.8,0.8,0.8h16c0.4,0,0.8-0.3,0.8-0.8S20.4,16.3,20,16.3z"/>
	<path class="st0" d="M15,20.3H9c-0.4,0-0.8,0.3-0.8,0.8s0.3,0.8,0.8,0.8h6c0.4,0,0.8-0.3,0.8-0.8S15.4,20.3,15,20.3z"/>
</g>
</svg>
