<?xml version="1.0" encoding="utf-8"?>
<!-- Generator: Adobe Illustrator 24.1.3, SVG Export Plug-In . SVG Version: 6.00 Build 0)  -->
<svg version="1.1" id="Layer_1" xmlns="http://www.w3.org/2000/svg" xmlns:xlink="http://www.w3.org/1999/xlink" x="0px" y="0px"
	 viewBox="0 0 24 24" style="enable-background:new 0 0 24 24;" xml:space="preserve">
<style type="text/css">
	.st0{fill:none;}
	.st1{fill:#323232;}
</style>
<g>
	<g>
		
	</g>
	<g>
		<path class="st1" d="M12,11.8c-1.2,0-2.4-0.5-3.4-1.4C7.7,9.5,7.2,8.3,7.2,7s0.5-2.5,1.4-3.4c0.9-0.9,2.1-1.4,3.4-1.4
			c1.3,0,2.5,0.5,3.4,1.4l0,0c0,0,0,0,0,0c1.9,1.9,1.9,4.9,0,6.8C14.5,11.3,13.2,11.8,12,11.8z M12,3.8c-0.9,0-1.6,0.3-2.3,0.9
			C9.1,5.3,8.8,6.1,8.8,7s0.3,1.7,0.9,2.3c1.2,1.2,3.3,1.2,4.5,0c1.2-1.2,1.2-3.3,0-4.5c0,0,0,0,0,0C13.7,4.1,12.9,3.8,12,3.8z"/>
	</g>
	<g>
		<path class="st1" d="M20,21.8H4c-1,0-1.8-0.8-1.8-1.8v-1c0-3.6,5-5.8,9.8-5.8s9.8,2.2,9.8,5.8v1C21.8,21,21,21.8,20,21.8z
			 M12,14.8c-4,0-8.2,1.7-8.2,4.2v1c0,0.1,0.1,0.2,0.2,0.2h16c0.1,0,0.2-0.1,0.2-0.2v-1C20.2,16.7,16.4,14.8,12,14.8z"/>
	</g>
	<g>
		<path id="a_1_" class="st0" d="M0,0h24v24H0V0z"/>
	</g>
</g>
</svg>
