<svg width="30" height="30" viewBox="0 0 30 30" fill="none" xmlns="http://www.w3.org/2000/svg">
<rect width="30" height="30" rx="15" fill="#F5F5F5" fill-opacity="0.01"/>
<g clip-path="url(#clip0)">
<path d="M15.0016 30.0006C23.2854 30.0006 30.0007 23.2853 30.0007 15.0015C30.0007 6.71779 23.2854 0.00248718 15.0016 0.00248718C6.71787 0.00248718 0.00256348 6.71779 0.00256348 15.0015C0.00256348 23.2853 6.71787 30.0006 15.0016 30.0006Z" fill="white"/>
<path d="M29.1425 9.99856C29.1411 9.99381 29.1396 9.98982 29.1377 9.98551C27.2182 4.57261 22.2801 0.59013 16.3473 0.0614929C18.6429 1.32004 18.6526 28.6737 16.3473 29.9375C22.291 29.4079 27.2359 25.4117 29.1482 19.9848C29.1531 19.9699 29.1574 19.9557 29.1626 19.9417C29.7028 18.394 29.9999 16.7318 29.9999 15.0001C29.9996 13.2454 29.6957 11.5629 29.1425 9.99856Z" fill="#D02027"/>
<path d="M20.6731 9.99856C20.0858 5.30752 18.643 1.3201 16.347 0.0615592C15.9205 0.0241297 15.4889 0.00329329 15.0532 0.00139332C15.0352 0.00139332 15.0177 0 14.9994 0C8.47428 0 2.92539 4.16741 0.861829 9.98558C0.860436 9.98982 0.858979 9.99388 0.85708 9.99863C0.30387 11.5629 0 13.2454 0 14.9999C0 16.7319 0.297473 18.3937 0.837193 19.9415C0.842196 19.9555 0.846883 19.9697 0.851633 19.9847C2.90696 25.8173 8.46389 29.9994 14.9994 29.9994C15.0174 29.9994 15.035 29.9984 15.0532 29.998C15.489 29.9966 15.9205 29.9757 16.347 29.9374C18.6524 28.6736 20.0981 24.658 20.6804 19.9416C21.0769 16.7331 21.0744 13.2027 20.6731 9.99856Z" fill="#DB2727"/>
<path d="M7.04711 8.0604C7.04711 6.02691 8.69572 4.37824 10.7297 4.37824C11.4139 4.37824 12.0541 4.56513 12.6031 4.89028C11.7978 4.09476 10.6913 3.60286 9.4697 3.60286C7.00778 3.60286 5.01242 5.59847 5.01242 8.06014C5.01242 10.5218 7.00803 12.5174 9.4697 12.5174C10.6913 12.5174 11.7978 12.0253 12.6031 11.2295C12.0541 11.5546 11.4139 11.742 10.7297 11.742C8.69572 11.7424 7.04711 10.0938 7.04711 8.0604Z" fill="#F3F4F5"/>
<path d="M14.9288 5.65204L15.8447 7.14441L17.5471 6.7342L16.4109 8.06685L17.3268 9.55846L15.7092 8.89011L14.5726 10.2224L14.7083 8.47661L13.0907 7.80826L14.7929 7.39831L14.9288 5.65204Z" fill="#F3F4F5"/>
</g>
<defs>
<clipPath id="clip0">
<rect width="30" height="30" fill="white"/>
</clipPath>
</defs>
</svg>
