<?xml version="1.0" encoding="utf-8"?>
<!-- Generator: Adobe Illustrator 23.0.3, SVG Export Plug-In . SVG Version: 6.00 Build 0)  -->
<svg version="1.1" id="Layer_1" xmlns="http://www.w3.org/2000/svg" xmlns:xlink="http://www.w3.org/1999/xlink" x="0px" y="0px"
	 width="24px" height="24px" viewBox="0 0 24 24" style="enable-background:new 0 0 24 24;" xml:space="preserve">
<style type="text/css">
	.st0{fill:#323232;}
</style>
<g>
	<path class="st0" d="M17,8.3c0-2.8-2.2-5-5-5s-5,2.2-5,5s2.2,5,5,5S17,11,17,8.3z M12,11.8c-1.9,0-3.5-1.6-3.5-3.5s1.6-3.5,3.5-3.5
		s3.5,1.6,3.5,3.5S13.9,11.8,12,11.8z"/>
	<path class="st0" d="M11.1,14.8H8.5c-2.9,0-5.3,2.4-5.3,5.3c0,0.4,0.3,0.8,0.8,0.8s0.8-0.3,0.8-0.8c0-2.1,1.7-3.8,3.8-3.8h2.6
		c0.4,0,0.8-0.3,0.8-0.8S11.5,14.8,11.1,14.8z"/>
	<path class="st0" d="M18.6,18l1.2-1.2c0.3-0.3,0.3-0.8,0-1.1s-0.8-0.3-1.1,0l-1.2,1.2l-1.2-1.2c-0.3-0.3-0.8-0.3-1.1,0
		s-0.3,0.8,0,1.1l1.2,1.2l-1.2,1.2c-0.3,0.3-0.3,0.8,0,1.1c0.1,0.1,0.3,0.2,0.5,0.2s0.4-0.1,0.5-0.2l1.2-1.2l1.2,1.2
		c0.1,0.1,0.3,0.2,0.5,0.2c0.2,0,0.4-0.1,0.5-0.2c0.3-0.3,0.3-0.8,0-1.1L18.6,18z"/>
</g>
</svg>
