<svg id="Layer_1" data-name="Layer 1" xmlns="http://www.w3.org/2000/svg" width="8.4667mm" height="8.4667mm" viewBox="0 0 24 24"><defs><style>.cls-1{fill:#323232;}</style></defs><path class="cls-1" d="M19,6.25h-.6895L15.2383,3.1777a1.7385,1.7385,0,0,0-1.2373-.5141H14a1.7372,1.7372,0,0,0-1.2373.5132L12,3.94l-.7627-.7627A1.738,1.738,0,0,0,10,2.6636h-.001a1.736,1.736,0,0,0-1.2358.5132L5.69,6.25H5A2.7528,2.7528,0,0,0,2.25,9V19A2.7528,2.7528,0,0,0,5,21.75H19A2.7528,2.7528,0,0,0,21.75,19V9A2.7528,2.7528,0,0,0,19,6.25Zm1.25,9H17.4189a.6693.6693,0,0,1-.6689-.6689V13.4189a.6693.6693,0,0,1,.6689-.6689H20.25ZM13.8232,4.2368A.2519.2519,0,0,1,14,4.1636h.001a.2487.2487,0,0,1,.1758.0737L16.1895,6.25h-1.879L13.06,5Zm-3.9995,0a.2123.2123,0,0,1,.3531.0005L12.19,6.25H7.8105ZM19,20.25H5A1.2511,1.2511,0,0,1,3.75,19V9A1.2511,1.2511,0,0,1,5,7.75H19A1.2511,1.2511,0,0,1,20.25,9v2.25H17.4189A2.1713,2.1713,0,0,0,15.25,13.4189v1.1622A2.171,2.171,0,0,0,17.4189,16.75H20.25V19A1.2511,1.2511,0,0,1,19,20.25Z"/></svg>