<svg id="Layer_1" data-name="Layer 1" xmlns="http://www.w3.org/2000/svg" width="8.4667mm" height="8.4667mm" viewBox="0 0 24 24"><defs><style>.cls-1{fill:#323232;}</style></defs><path class="cls-1" d="M12,12.75a.75.75,0,0,1-.75-.75V7.5a.75.75,0,0,1,1.5,0V12A.75.75,0,0,1,12,12.75Z"/><path class="cls-1" d="M12,16.75a1.0009,1.0009,0,0,1-1-1,.9985.9985,0,0,1,.999-1,1,1,0,1,1,.001,2Z"/><path class="cls-1" d="M12.0005,22.248a5.2546,5.2546,0,0,1-2.6411-.7109l-4.5-2.6191A5.2664,5.2664,0,0,1,2.25,14.3809V9.6191A5.2682,5.2682,0,0,1,4.8584,5.082l4.5-2.62a5.2624,5.2624,0,0,1,5.2812,0l4.5,2.6191a5.2666,5.2666,0,0,1,2.61,4.5376v4.7618a5.2664,5.2664,0,0,1-2.6094,4.5371l-4.5,2.6191A5.2472,5.2472,0,0,1,12.0005,22.248ZM12,3.2515a3.7474,3.7474,0,0,0-1.8867.5078L5.6133,6.3784A3.7629,3.7629,0,0,0,3.75,9.6191v4.7618a3.7613,3.7613,0,0,0,1.8638,3.24L10.1143,20.24a3.754,3.754,0,0,0,3.7714,0l4.501-2.6191a3.7609,3.7609,0,0,0,1.8633-3.24V9.6191a3.7624,3.7624,0,0,0-1.8643-3.2407l-4.5-2.6191A3.7466,3.7466,0,0,0,12,3.2515Z"/></svg>