<?xml version="1.0" encoding="utf-8"?>
<!-- Generator: Adobe Illustrator 24.1.3, SVG Export Plug-In . SVG Version: 6.00 Build 0)  -->
<svg version="1.1" id="Layer_1" xmlns="http://www.w3.org/2000/svg" xmlns:xlink="http://www.w3.org/1999/xlink" x="0px" y="0px"
	 width="100px" height="100px"
	 viewBox="0 0 212.4 51.2" style="enable-background:new 0 0 212.4 51.2;" xml:space="preserve">
<style type="text/css">
	.st0{fill:#49238C;}
	.st1{fill:#45C6D4;}
	.st2{fill:#36215C;}
</style>
<rect width="90" height="90" rx="22.37" ry="22.37" fill="white" />
<g id="Logo" transform="translate(-496 -158)">
	<path id="Path_146" class="st0" d="M558.2,202.6c0-14.2-11.5-25.6-25.6-25.6c-14.2,0-25.6,11.5-25.6,25.6s11.5,25.6,25.6,25.6l0,0
		C546.7,228.2,558.2,216.7,558.2,202.6z M517.5,202.7c0-8.4,6.8-15.2,15.2-15.2s15.2,6.8,15.2,15.2c0,8.4-6.8,15.2-15.2,15.2
		c0,0,0,0,0,0C524.3,217.9,517.5,211.1,517.5,202.7z"/>
	<path id="Path_147" class="st1" d="M565.3,202.4c0,4.2-1.7,8.1-4.7,11l7.3,7.3c10.1-9.9,10.2-26.1,0.3-36.2
		c-0.1-0.1-0.3-0.3-0.4-0.4l-7.2,7.2C563.6,194.2,565.3,198.2,565.3,202.4z"/>
</g>
</svg>
